<svg width="304" height="152" viewBox="0 0 304 152" fill="none" xmlns="http://www.w3.org/2000/svg">
<path d="M20.9357 118.2C20.9357 118.2 19.4249 138.476 0 152H42.983C42.983 152 33.454 152.375 20.9357 118.2Z" fill="url(#paint0_linear_17_1850)"/>
<path d="M0 1.03693L92.5813 130.963C92.5813 130.963 99.9304 143.362 92.5813 152H154.806C148.348 146.518 142.355 140.489 136.892 133.975L45.3248 1.03693H0Z" fill="url(#paint1_linear_17_1850)"/>
<path d="M113.312 1.03693C113.312 1.03693 126.974 8.82501 134.14 34.9691C134.14 34.9691 137.852 13.5685 154.806 1.03693H113.312Z" fill="url(#paint2_linear_17_1850)"/>
<path d="M156.781 152C156.781 152 168.447 144.488 180.015 117.913C180.015 117.913 180.199 142.888 197.552 152H156.781Z" fill="url(#paint3_linear_17_1850)"/>
<path d="M234.178 0L210.113 44.1251L246.049 136.369C246.049 136.369 249.761 147.069 243.427 152H304C304 152 292.982 144.819 289.539 138.332L234.178 0Z" fill="url(#paint4_linear_17_1850)"/>
<defs>
<linearGradient id="paint0_linear_17_1850" x1="21.4915" y1="118.2" x2="21.4915" y2="152" gradientUnits="userSpaceOnUse">
<stop stop-color="#F46646"/>
<stop offset="1" stop-color="#E40037"/>
</linearGradient>
<linearGradient id="paint1_linear_17_1850" x1="77.4029" y1="1.03693" x2="77.4029" y2="152" gradientUnits="userSpaceOnUse">
<stop stop-color="#F46646"/>
<stop offset="1" stop-color="#E40037"/>
</linearGradient>
<linearGradient id="paint2_linear_17_1850" x1="134.059" y1="1.03693" x2="134.059" y2="34.9691" gradientUnits="userSpaceOnUse">
<stop stop-color="#F46646"/>
<stop offset="1" stop-color="#E40037"/>
</linearGradient>
<linearGradient id="paint3_linear_17_1850" x1="177.166" y1="117.913" x2="177.166" y2="152" gradientUnits="userSpaceOnUse">
<stop stop-color="#F46646"/>
<stop offset="1" stop-color="#E40037"/>
</linearGradient>
<linearGradient id="paint4_linear_17_1850" x1="257.056" y1="0" x2="257.056" y2="152" gradientUnits="userSpaceOnUse">
<stop stop-color="#F46646"/>
<stop offset="1" stop-color="#E40037"/>
</linearGradient>
</defs>
</svg>
